{
  "accessors": [
    {
      "bufferView": 2,
      "componentType": 5126,
      "count": 869,
      "max": [
        0.5079594254493713,
        0.50303715467453,
        0.1847013384103775
      ],
      "min": [
        -0.5170426964759827,
        -0.5219650268554688,
        0.08331918716430664
      ],
      "type": "VEC3"
    },
    {
      "bufferView": 2,
      "byteOffset": 10428,
      "componentType": 5126,
      "count": 869,
      "max": [
        0.9292961359024048,
        0.9292948246002197,
        1.0
      ],
      "min": [
        -0.9292948842048645,
        -0.9292977452278137,
        0.3693062961101532
      ],
      "type": "VEC3"
    },
    {
      "bufferView": 1,
      "componentType": 5126,
      "count": 869,
      "max": [
        0.930874228477478,
        0.9980080127716064
      ],
      "min": [
        0.0018580325413495302,
        0.0019920319318771362
      ],
      "type": "VEC2"
    },
    {
      "bufferView": 0,
      "componentType": 5125,
      "count": 4680,
      "type": "SCALAR"
    },
    {
      "bufferView": 2,
      "byteOffset": 20856,
      "componentType": 5126,
      "count": 3649,
      "max": [
        2.1554689407348633,
        1.0726556777954102,
        0.07758823782205582
      ],
      "min": [
        -2.161820411682129,
        -2.484142541885376,
        -0.03674221411347389
      ],
      "type": "VEC3"
    },
    {
      "bufferView": 2,
      "byteOffset": 64644,
      "componentType": 5126,
      "count": 3649,
      "max": [
        1.0,
        1.0,
        1.0
      ],
      "min": [
        -1.0,
        -1.0,
        -1.0
      ],
      "type": "VEC3"
    },
    {
      "bufferView": 1,
      "byteOffset": 6952,
      "componentType": 5126,
      "count": 3649,
      "max": [
        0.8481845855712891,
        0.9980080723762512
      ],
      "min": [
        0.0016929833218455315,
        0.00199203216470778
      ],
      "type": "VEC2"
    },
    {
      "bufferView": 0,
      "byteOffset": 18720,
      "componentType": 5125,
      "count": 18360,
      "type": "SCALAR"
    },
    {
      "bufferView": 2,
      "byteOffset": 108432,
      "componentType": 5126,
      "count": 516,
      "max": [
        0.6493852734565735,
        0.651506781578064,
        0.10388370603322983
      ],
      "min": [
        -0.6646876335144043,
        -0.6625661849975586,
        0.007622187957167625
      ],
      "type": "VEC3"
    },
    {
      "bufferView": 2,
      "byteOffset": 114624,
      "componentType": 5126,
      "count": 516,
      "max": [
        1.0,
        1.0,
        1.0
      ],
      "min": [
        -1.0,
        -1.0,
        -1.684797894085932e-06
      ],
      "type": "VEC3"
    },
    {
      "bufferView": 1,
      "byteOffset": 36144,
      "componentType": 5126,
      "count": 516,
      "max": [
        0.7966963052749634,
        0.9980079531669617
      ],
      "min": [
        0.0015902123413980007,
        0.00199203216470778
      ],
      "type": "VEC2"
    },
    {
      "bufferView": 0,
      "byteOffset": 92160,
      "componentType": 5125,
      "count": 2400,
      "type": "SCALAR"
    },
    {
      "bufferView": 2,
      "byteOffset": 120816,
      "componentType": 5126,
      "count": 420,
      "max": [
        0.5190303325653076,
        0.5211519598960876,
        0.11310979723930359
      ],
      "min": [
        -0.5343327522277832,
        -0.5322113037109375,
        0.1014726459980011
      ],
      "type": "VEC3"
    },
    {
      "bufferView": 2,
      "byteOffset": 125856,
      "componentType": 5126,
      "count": 420,
      "max": [
        1.0,
        1.0,
        1.0
      ],
      "min": [
        -1.0,
        -1.0,
        -4.069489932589931e-06
      ],
      "type": "VEC3"
    },
    {
      "bufferView": 1,
      "byteOffset": 40272,
      "componentType": 5126,
      "count": 420,
      "max": [
        0.9980080723762512,
        0.9341294169425964
      ],
      "min": [
        0.00199203216470778,
        0.001864530029706657
      ],
      "type": "VEC2"
    },
    {
      "bufferView": 0,
      "byteOffset": 101760,
      "componentType": 5125,
      "count": 1920,
      "type": "SCALAR"
    },
    {
      "bufferView": 2,
      "byteOffset": 130896,
      "componentType": 5126,
      "count": 8779,
      "max": [
        4.123286724090576,
        4.114256858825684,
        0.3369351625442505
      ],
      "min": [
        -4.129637718200684,
        -4.133766174316406,
        -0.33693522214889526
      ],
      "type": "VEC3"
    },
    {
      "bufferView": 2,
      "byteOffset": 236244,
      "componentType": 5126,
      "count": 8779,
      "max": [
        0.9997711181640625,
        1.0,
        1.0
      ],
      "min": [
        -0.9997706413269043,
        -1.0,
        -1.0
      ],
      "type": "VEC3"
    },
    {
      "bufferView": 1,
      "byteOffset": 43632,
      "componentType": 5126,
      "count": 8779,
      "max": [
        0.9383078813552856,
        0.9980079531669617
      ],
      "min": [
        0.0018728701397776604,
        0.00199203216470778
      ],
      "type": "VEC2"
    },
    {
      "bufferView": 0,
      "byteOffset": 109440,
      "componentType": 5125,
      "count": 42504,
      "type": "SCALAR"
    },
    {
      "bufferView": 2,
      "byteOffset": 341592,
      "componentType": 5126,
      "count": 4056,
      "max": [
        0.7962623238563538,
        0.897781252861023,
        0.07397235184907913
      ],
      "min": [
        -0.8035260438919067,
        -0.9290192723274231,
        0.05964534729719162
      ],
      "type": "VEC3"
    },
    {
      "bufferView": 2,
      "byteOffset": 390264,
      "componentType": 5126,
      "count": 4056,
      "max": [
        0.9997937083244324,
        0.9997937679290771,
        0.9957808256149292
      ],
      "min": [
        -0.9997943639755249,
        -0.9997938871383667,
        -1.0
      ],
      "type": "VEC3"
    },
    {
      "bufferView": 1,
      "byteOffset": 113864,
      "componentType": 5126,
      "count": 4056,
      "max": [
        0.9980080127716064,
        0.9174339175224304
      ],
      "min": [
        0.00199203216470778,
        0.0018312054453417659
      ],
      "type": "VEC2"
    },
    {
      "bufferView": 0,
      "byteOffset": 279456,
      "componentType": 5125,
      "count": 17280,
      "type": "SCALAR"
    }
  ],
  "asset": {
    "extras": {
      "author": "Ahmed Aman (https://sketchfab.com/ahmedaman2)",
      "license": "CC-BY-4.0 (http://creativecommons.org/licenses/by/4.0/)",
      "source": "https://sketchfab.com/3d-models/steering-wheel-l505-3d204d99f5184df4901dd9b1d0ec3c84",
      "title": "steering wheel L505"
    },
    "generator": "Sketchfab-15.34.0",
    "version": "2.0"
  },
  "bufferViews": [
    {
      "buffer": 0,
      "byteLength": 348576,
      "name": "floatBufferViews",
      "target": 34963
    },
    {
      "buffer": 0,
      "byteLength": 146312,
      "byteOffset": 348576,
      "byteStride": 8,
      "name": "floatBufferViews",
      "target": 34962
    },
    {
      "buffer": 0,
      "byteLength": 438936,
      "byteOffset": 494888,
      "byteStride": 12,
      "name": "floatBufferViews",
      "target": 34962
    }
  ],
  "buffers": [
    {
      "byteLength": 933824,
      "uri": "scene.bin"
    }
  ],
  "extensionsUsed": [
    "KHR_materials_specular"
  ],
  "images": [
    {
      "uri": "textures/aiStandardSurface2_baseColor.png"
    },
    {
      "uri": "textures/aiStandardSurface2_metallicRoughness.png"
    },
    {
      "uri": "textures/aiStandardSurface2_specularf0.png"
    },
    {
      "uri": "textures/aiStandardSurface3_baseColor.png"
    },
    {
      "uri": "textures/aiStandardSurface3_metallicRoughness.png"
    },
    {
      "uri": "textures/aiStandardSurface3_specularf0.png"
    },
    {
      "uri": "textures/aiStandardSurface1_baseColor.png"
    },
    {
      "uri": "textures/aiStandardSurface1_metallicRoughness.png"
    },
    {
      "uri": "textures/aiStandardSurface1_specularf0.png"
    },
    {
      "uri": "textures/aiStandardSurface5_baseColor.png"
    },
    {
      "uri": "textures/aiStandardSurface5_metallicRoughness.png"
    },
    {
      "uri": "textures/aiStandardSurface5_specularf0.png"
    },
    {
      "uri": "textures/aiStandardSurface4_baseColor.png"
    },
    {
      "uri": "textures/aiStandardSurface4_metallicRoughness.png"
    },
    {
      "uri": "textures/aiStandardSurface4_specularf0.png"
    },
    {
      "uri": "textures/aiStandardSurface6_baseColor.png"
    },
    {
      "uri": "textures/aiStandardSurface6_metallicRoughness.png"
    },
    {
      "uri": "textures/aiStandardSurface6_specularf0.png"
    }
  ],
  "materials": [
    {
      "doubleSided": true,
      "extensions": {
        "KHR_materials_specular": {
          "specularColorFactor": [
            1.0,
            1.0,
            1.0
          ],
          "specularFactor": 1.0,
          "specularTexture": {
            "index": 2
          }
        }
      },
      "name": "aiStandardSurface2",
      "pbrMetallicRoughness": {
        "baseColorTexture": {
          "index": 0
        },
        "metallicRoughnessTexture": {
          "index": 1
        },
        "roughnessFactor": 0.6
      }
    },
    {
      "doubleSided": true,
      "extensions": {
        "KHR_materials_specular": {
          "specularColorFactor": [
            1.0,
            1.0,
            1.0
          ],
          "specularFactor": 1.0,
          "specularTexture": {
            "index": 5
          }
        }
      },
      "name": "aiStandardSurface3",
      "pbrMetallicRoughness": {
        "baseColorTexture": {
          "index": 3
        },
        "metallicRoughnessTexture": {
          "index": 4
        },
        "roughnessFactor": 0.6
      }
    },
    {
      "doubleSided": true,
      "extensions": {
        "KHR_materials_specular": {
          "specularColorFactor": [
            1.0,
            1.0,
            1.0
          ],
          "specularFactor": 1.0,
          "specularTexture": {
            "index": 8
          }
        }
      },
      "name": "aiStandardSurface1",
      "pbrMetallicRoughness": {
        "baseColorTexture": {
          "index": 6
        },
        "metallicRoughnessTexture": {
          "index": 7
        },
        "roughnessFactor": 0.6
      }
    },
    {
      "doubleSided": true,
      "extensions": {
        "KHR_materials_specular": {
          "specularColorFactor": [
            1.0,
            1.0,
            1.0
          ],
          "specularFactor": 1.0,
          "specularTexture": {
            "index": 11
          }
        }
      },
      "name": "aiStandardSurface5",
      "pbrMetallicRoughness": {
        "baseColorTexture": {
          "index": 9
        },
        "metallicRoughnessTexture": {
          "index": 10
        },
        "roughnessFactor": 0.6
      }
    },
    {
      "doubleSided": true,
      "extensions": {
        "KHR_materials_specular": {
          "specularColorFactor": [
            1.0,
            1.0,
            1.0
          ],
          "specularFactor": 1.0,
          "specularTexture": {
            "index": 14
          }
        }
      },
      "name": "aiStandardSurface4",
      "pbrMetallicRoughness": {
        "baseColorTexture": {
          "index": 12
        },
        "metallicRoughnessTexture": {
          "index": 13
        },
        "roughnessFactor": 0.6
      }
    },
    {
      "doubleSided": true,
      "extensions": {
        "KHR_materials_specular": {
          "specularColorFactor": [
            1.0,
            1.0,
            1.0
          ],
          "specularFactor": 1.0,
          "specularTexture": {
            "index": 17
          }
        }
      },
      "name": "aiStandardSurface6",
      "pbrMetallicRoughness": {
        "baseColorTexture": {
          "index": 15
        },
        "metallicRoughnessTexture": {
          "index": 16
        },
        "roughnessFactor": 0.6
      }
    }
  ],
  "meshes": [
    {
      "name": "polySurface1_aiStandardSurface2_0",
      "primitives": [
        {
          "attributes": {
            "NORMAL": 1,
            "POSITION": 0,
            "TEXCOORD_0": 2
          },
          "indices": 3,
          "material": 0,
          "mode": 4
        }
      ]
    },
    {
      "name": "polySurface2_aiStandardSurface3_0",
      "primitives": [
        {
          "attributes": {
            "NORMAL": 5,
            "POSITION": 4,
            "TEXCOORD_0": 6
          },
          "indices": 7,
          "material": 1,
          "mode": 4
        }
      ]
    },
    {
      "name": "polySurface7_aiStandardSurface1_0",
      "primitives": [
        {
          "attributes": {
            "NORMAL": 9,
            "POSITION": 8,
            "TEXCOORD_0": 10
          },
          "indices": 11,
          "material": 2,
          "mode": 4
        }
      ]
    },
    {
      "name": "polySurface11_aiStandardSurface5_0",
      "primitives": [
        {
          "attributes": {
            "NORMAL": 13,
            "POSITION": 12,
            "TEXCOORD_0": 14
          },
          "indices": 15,
          "material": 3,
          "mode": 4
        }
      ]
    },
    {
      "name": "polySurface3_aiStandardSurface4_0",
      "primitives": [
        {
          "attributes": {
            "NORMAL": 17,
            "POSITION": 16,
            "TEXCOORD_0": 18
          },
          "indices": 19,
          "material": 4,
          "mode": 4
        }
      ]
    },
    {
      "name": "polySurface9_aiStandardSurface6_0",
      "primitives": [
        {
          "attributes": {
            "NORMAL": 21,
            "POSITION": 20,
            "TEXCOORD_0": 22
          },
          "indices": 23,
          "material": 5,
          "mode": 4
        }
      ]
    }
  ],
  "nodes": [
    {
      "children": [
        1
      ],
      "matrix": [
        1.0,
        0.0,
        0.0,
        0.0,
        0.0,
        2.220446049250313e-16,
        -1.0,
        0.0,
        0.0,
        1.0,
        2.220446049250313e-16,
        0.0,
        0.0,
        0.0,
        0.0,
        1.0
      ],
      "name": "Sketchfab_model"
    },
    {
      "children": [
        2
      ],
      "matrix": [
        0.009999999776482582,
        0.0,
        0.0,
        0.0,
        0.0,
        0.0,
        0.009999999776482582,
        0.0,
        0.0,
        -0.009999999776482582,
        0.0,
        0.0,
        0.0,
        0.0,
        0.0,
        1.0
      ],
      "name": "ee0786e28a664c44a999c3aa790c1495.fbx"
    },
    {
      "children": [
        3
      ],
      "name": "RootNode"
    },
    {
      "children": [
        4,
        6,
        8,
        10,
        12,
        14
      ],
      "name": "pSphere2"
    },
    {
      "children": [
        5
      ],
      "matrix": [
        1.0,
        0.0,
        0.0,
        0.0,
        0.0,
        1.0,
        0.0,
        0.0,
        0.0,
        0.0,
        1.0,
        0.0,
        0.0,
        23.62039566040039,
        0.0,
        1.0
      ],
      "name": "polySurface1"
    },
    {
      "mesh": 0,
      "name": "polySurface1_aiStandardSurface2_0"
    },
    {
      "children": [
        7
      ],
      "matrix": [
        1.0,
        0.0,
        0.0,
        0.0,
        0.0,
        1.0,
        0.0,
        0.0,
        0.0,
        0.0,
        1.0,
        0.0,
        0.0,
        23.62039566040039,
        0.0,
        1.0
      ],
      "name": "polySurface2"
    },
    {
      "mesh": 1,
      "name": "polySurface2_aiStandardSurface3_0"
    },
    {
      "children": [
        9
      ],
      "matrix": [
        1.0111662149429321,
        0.0,
        0.0,
        0.0,
        0.0,
        1.0111662149429321,
        0.0,
        0.0,
        0.0,
        0.0,
        1.0111662149429321,
        0.0,
        0.0,
        23.62039566040039,
        0.0,
        1.0
      ],
      "name": "polySurface7"
    },
    {
      "mesh": 2,
      "name": "polySurface7_aiStandardSurface1_0"
    },
    {
      "children": [
        11
      ],
      "matrix": [
        0.9727650284767151,
        0.0,
        0.0,
        0.0,
        0.0,
        0.9727650284767151,
        0.0,
        0.0,
        0.0,
        0.0,
        0.9727650284767151,
        0.0,
        0.0,
        23.62039566040039,
        0.0,
        1.0
      ],
      "name": "polySurface11"
    },
    {
      "mesh": 3,
      "name": "polySurface11_aiStandardSurface5_0"
    },
    {
      "children": [
        13
      ],
      "matrix": [
        1.0,
        0.0,
        0.0,
        0.0,
        0.0,
        1.0,
        0.0,
        0.0,
        0.0,
        0.0,
        1.0,
        0.0,
        0.0,
        23.62039566040039,
        0.0,
        1.0
      ],
      "name": "polySurface3"
    },
    {
      "mesh": 4,
      "name": "polySurface3_aiStandardSurface4_0"
    },
    {
      "children": [
        15
      ],
      "matrix": [
        1.0,
        0.0,
        0.0,
        0.0,
        0.0,
        1.0,
        0.0,
        0.0,
        0.0,
        0.0,
        1.0,
        0.0,
        0.0,
        23.62039566040039,
        0.0,
        1.0
      ],
      "name": "polySurface9"
    },
    {
      "mesh": 5,
      "name": "polySurface9_aiStandardSurface6_0"
    }
  ],
  "samplers": [
    {
      "magFilter": 9729,
      "minFilter": 9987,
      "wrapS": 10497,
      "wrapT": 10497
    }
  ],
  "scene": 0,
  "scenes": [
    {
      "name": "Sketchfab_Scene",
      "nodes": [
        0
      ]
    }
  ],
  "textures": [
    {
      "sampler": 0,
      "source": 0
    },
    {
      "sampler": 0,
      "source": 1
    },
    {
      "sampler": 0,
      "source": 2
    },
    {
      "sampler": 0,
      "source": 3
    },
    {
      "sampler": 0,
      "source": 4
    },
    {
      "sampler": 0,
      "source": 5
    },
    {
      "sampler": 0,
      "source": 6
    },
    {
      "sampler": 0,
      "source": 7
    },
    {
      "sampler": 0,
      "source": 8
    },
    {
      "sampler": 0,
      "source": 9
    },
    {
      "sampler": 0,
      "source": 10
    },
    {
      "sampler": 0,
      "source": 11
    },
    {
      "sampler": 0,
      "source": 12
    },
    {
      "sampler": 0,
      "source": 13
    },
    {
      "sampler": 0,
      "source": 14
    },
    {
      "sampler": 0,
      "source": 15
    },
    {
      "sampler": 0,
      "source": 16
    },
    {
      "sampler": 0,
      "source": 17
    }
  ]
}
